# xmcd CD database file
#
# Track frame offsets:
#	150
#	2577
#	26645
#	48902
#	69720
#	72995
#	91530
#	112255
#	134480
#	138052
#	161420
#
# Disc length: 2411 seconds
#
# Revision: 5
# Processed by: cddbd v1.5.2PL0 Copyright (c) Steve Scherf et al.
# Submitted via: CDex 1.70beta2
#
DISCID=8e09690b
DTITLE=笠原弘子 - 本当の私
DYEAR=1996
DGENRE=Pop
TTITLE0=Interlude-1
TTITLE1=アヤシイ
TTITLE2=ブラブラしよう
TTITLE3=ミクロ
TTITLE4=Interlude-2
TTITLE5=起こさないキス
TTITLE6=自分勝手でごめんなさい
TTITLE7=キャラメル色の毛布
TTITLE8=Interlude-3
TTITLE9=そっと夜に泣こう
TTITLE10=ホッとひと息
EXTD=YEAR: 1996
EXTT0=
EXTT1=
EXTT2=
EXTT3=
EXTT4=
EXTT5=
EXTT6=
EXTT7=
EXTT8=
EXTT9=
EXTT10=
PLAYORDER=
